HIERARCHY
ROOT Hips
{
	OFFSET 0.053599 88.859886 3.107447
	CHANNELS 6 Xposition Yposition Zposition Zrotation Yrotation Xrotation 
	JOINT Spine
	{
		OFFSET -0.000000 8.814246 -2.080107
		CHANNELS 3 Zrotation Yrotation Xrotation
		JOINT Spine1
		{
			OFFSET 0.000000 8.844141 0.000000
			CHANNELS 3 Zrotation Yrotation Xrotation
			JOINT Spine2
			{
				OFFSET -0.000000 11.682268 0.000000
				CHANNELS 3 Zrotation Yrotation Xrotation
				JOINT Spine3
				{
					OFFSET 0.000000 11.746700 0.000000
					CHANNELS 3 Zrotation Yrotation Xrotation
					JOINT Neck
					{
						OFFSET -0.000000 17.658264 -0.000000
						CHANNELS 3 Zrotation Yrotation Xrotation
						JOINT Neck1
						{
							OFFSET -0.000000 5.101515 -0.000000
							CHANNELS 3 Zrotation Yrotation Xrotation
							JOINT Head
							{
								OFFSET 0.000000 5.101515 0.000000
								CHANNELS 3 Zrotation Yrotation Xrotation
								JOINT HeadEnd
								{
									OFFSET 0.000000 11.655085 0.000000
									CHANNELS 3 Zrotation Yrotation Xrotation
									End Site
									{
										OFFSET 0.000000 0.000000 0.000000
									}
								}
							}
						}
					}
					JOINT RightShoulder
					{
						OFFSET -2.625389 11.175210 0.000000
						CHANNELS 3 Zrotation Yrotation Xrotation
						JOINT RightArm
						{
							OFFSET -0.000000 10.434715 -0.000000
							CHANNELS 3 Zrotation Yrotation Xrotation
							JOINT RightForeArm
							{
								OFFSET -0.000000 29.628420 0.000000
								CHANNELS 3 Zrotation Yrotation Xrotation
								JOINT RightHand
								{
									OFFSET -0.000000 22.857611 0.000000
									CHANNELS 3 Zrotation Yrotation Xrotation
									JOINT RightHandThumb1
									{
										OFFSET -2.867323 3.959563 2.944291
										CHANNELS 3 Zrotation Yrotation Xrotation
										JOINT RightHandThumb2
										{
											OFFSET 0.000000 3.350399 0.000000
											CHANNELS 3 Zrotation Yrotation Xrotation
											JOINT RightHandThumb3
											{
												OFFSET 0.000000 3.756509 -0.000000
												CHANNELS 3 Zrotation Yrotation Xrotation
												JOINT RightHandThumb4
												{
													OFFSET 0.000000 3.147345 0.000000
													CHANNELS 3 Zrotation Yrotation Xrotation
													End Site
													{
														OFFSET 0.000000 0.000000 0.000000
													}
												}
											}
										}
									}
									JOINT RightHandIndex1
									{
										OFFSET -0.086752 10.030893 2.345280
										CHANNELS 3 Zrotation Yrotation Xrotation
										JOINT RightHandIndex2
										{
											OFFSET -0.000000 4.061090 0.000000
											CHANNELS 3 Zrotation Yrotation Xrotation
											JOINT RightHandIndex3
											{
												OFFSET -0.000000 3.248873 0.000000
												CHANNELS 3 Zrotation Yrotation Xrotation
												JOINT RightHandIndex4
												{
													OFFSET 0.000000 2.639709 -0.000000
													CHANNELS 3 Zrotation Yrotation Xrotation
													End Site
													{
														OFFSET 0.000000 0.000000 0.000000
													}
												}
											}
										}
									}
									JOINT RightHandMiddle1
									{
										OFFSET 0.104102 9.502952 0.006768
										CHANNELS 3 Zrotation Yrotation Xrotation
										JOINT RightHandMiddle2
										{
											OFFSET 0.000000 4.568727 0.000000
											CHANNELS 3 Zrotation Yrotation Xrotation
											JOINT RightHandMiddle3
											{
												OFFSET 0.000000 3.654981 -0.000000
												CHANNELS 3 Zrotation Yrotation Xrotation
												JOINT RightHandMiddle4
												{
													OFFSET -0.000000 2.741236 -0.000000
													CHANNELS 3 Zrotation Yrotation Xrotation
													End Site
													{
														OFFSET 0.000000 0.000000 0.000000
													}
												}
											}
										}
									}
									JOINT RightHandRing1
									{
										OFFSET 0.086752 8.921708 -2.267442
										CHANNELS 3 Zrotation Yrotation Xrotation
										JOINT RightHandRing2
										{
											OFFSET -0.000000 4.061090 0.000000
											CHANNELS 3 Zrotation Yrotation Xrotation
											JOINT RightHandRing3
											{
												OFFSET 0.000000 3.654981 -0.000000
												CHANNELS 3 Zrotation Yrotation Xrotation
												JOINT RightHandRing4
												{
													OFFSET 0.000000 2.741236 -0.000000
													CHANNELS 3 Zrotation Yrotation Xrotation
													End Site
													{
														OFFSET 0.000000 0.000000 0.000000
													}
												}
											}
										}
									}
									JOINT RightHandPinky1
									{
										OFFSET -0.173504 7.976997 -4.467199
										CHANNELS 3 Zrotation Yrotation Xrotation
										JOINT RightHandPinky2
										{
											OFFSET 0.000000 3.350399 -0.000000
											CHANNELS 3 Zrotation Yrotation Xrotation
											JOINT RightHandPinky3
											{
												OFFSET -0.000000 2.842763 0.000000
												CHANNELS 3 Zrotation Yrotation Xrotation
												JOINT RightHandPinky4
												{
													OFFSET -0.000000 2.639709 0.000000
													CHANNELS 3 Zrotation Yrotation Xrotation
													End Site
													{
														OFFSET 0.000000 0.000000 0.000000
													}
												}
											}
										}
									}
									JOINT RightForeArmEnd
									{
										OFFSET 0.000000 0.000000 0.000000
										CHANNELS 3 Zrotation Yrotation Xrotation
										End Site
										{
											OFFSET 0.000000 0.000000 0.000000
										}
									}
								}
								JOINT RightArmEnd
								{
									OFFSET 0.000000 0.000000 0.000000
									CHANNELS 3 Zrotation Yrotation Xrotation
									End Site
									{
										OFFSET 0.000000 0.000000 0.000000
									}
								}
							}
						}
					}
					JOINT LeftShoulder
					{
						OFFSET 2.625389 11.175210 0.000000
						CHANNELS 3 Zrotation Yrotation Xrotation
						JOINT LeftArm
						{
							OFFSET 0.000000 10.813635 -0.000000
							CHANNELS 3 Zrotation Yrotation Xrotation
							JOINT LeftForeArm
							{
								OFFSET 0.000000 28.724781 0.000000
								CHANNELS 3 Zrotation Yrotation Xrotation
								JOINT LeftHand
								{
									OFFSET 0.644384 25.716167 -0.328871
									CHANNELS 3 Zrotation Yrotation Xrotation
									JOINT LeftHandThumb1
									{
										OFFSET 2.867323 3.959563 2.944291
										CHANNELS 3 Zrotation Yrotation Xrotation
										JOINT LeftHandThumb2
										{
											OFFSET 0.000000 3.350399 0.000000
											CHANNELS 3 Zrotation Yrotation Xrotation
											JOINT LeftHandThumb3
											{
												OFFSET -0.000000 3.756509 0.000000
												CHANNELS 3 Zrotation Yrotation Xrotation
												JOINT LeftHandThumb4
												{
													OFFSET -0.000000 3.100000 0.000000
													CHANNELS 3 Zrotation Yrotation Xrotation
													End Site
													{
														OFFSET 0.000000 0.000000 0.000000
													}
												}
											}
										}
									}
									JOINT LeftHandIndex1
									{
										OFFSET 0.086752 10.030893 2.345280
										CHANNELS 3 Zrotation Yrotation Xrotation
										JOINT LeftHandIndex2
										{
											OFFSET -0.000000 4.061090 -0.000000
											CHANNELS 3 Zrotation Yrotation Xrotation
											JOINT LeftHandIndex3
											{
												OFFSET 0.000000 3.248873 -0.000000
												CHANNELS 3 Zrotation Yrotation Xrotation
												JOINT LeftHandIndex4
												{
													OFFSET 0.000000 2.639709 -0.000000
													CHANNELS 3 Zrotation Yrotation Xrotation
													End Site
													{
														OFFSET 0.000000 0.000000 0.000000
													}
												}
											}
										}
									}
									JOINT LeftHandMiddle1
									{
										OFFSET -0.104102 9.502952 0.006768
										CHANNELS 3 Zrotation Yrotation Xrotation
										JOINT LeftHandMiddle2
										{
											OFFSET -0.000000 4.568727 -0.000000
											CHANNELS 3 Zrotation Yrotation Xrotation
											JOINT LeftHandMiddle3
											{
												OFFSET 0.000000 3.654981 0.000000
												CHANNELS 3 Zrotation Yrotation Xrotation
												JOINT LeftHandMiddle4
												{
													OFFSET 0.000000 2.741236 -0.000000
													CHANNELS 3 Zrotation Yrotation Xrotation
													End Site
													{
														OFFSET 0.000000 0.000000 0.000000
													}
												}
											}
										}
									}
									JOINT LeftHandRing1
									{
										OFFSET -0.086752 8.921708 -2.267442
										CHANNELS 3 Zrotation Yrotation Xrotation
										JOINT LeftHandRing2
										{
											OFFSET 0.000000 4.061090 0.000000
											CHANNELS 3 Zrotation Yrotation Xrotation
											JOINT LeftHandRing3
											{
												OFFSET 0.000000 3.654981 0.000000
												CHANNELS 3 Zrotation Yrotation Xrotation
												JOINT LeftHandRing4
												{
													OFFSET 0.000000 2.741236 0.000000
													CHANNELS 3 Zrotation Yrotation Xrotation
													End Site
													{
														OFFSET 0.000000 0.000000 0.000000
													}
												}
											}
										}
									}
									JOINT LeftHandPinky1
									{
										OFFSET 0.173504 7.976997 -4.467199
										CHANNELS 3 Zrotation Yrotation Xrotation
										JOINT LeftHandPinky2
										{
											OFFSET -0.000000 3.350399 -0.000000
											CHANNELS 3 Zrotation Yrotation Xrotation
											JOINT LeftHandPinky3
											{
												OFFSET 0.000000 2.842763 0.000000
												CHANNELS 3 Zrotation Yrotation Xrotation
												JOINT LeftHandPinky4
												{
													OFFSET -0.000000 2.639709 -0.000000
													CHANNELS 3 Zrotation Yrotation Xrotation
													End Site
													{
														OFFSET 0.000000 0.000000 0.000000
													}
												}
											}
										}
									}
									JOINT LeftForeArmEnd
									{
										OFFSET 0.000000 0.000000 0.000000
										CHANNELS 3 Zrotation Yrotation Xrotation
										End Site
										{
											OFFSET 0.000000 0.000000 0.000000
										}
									}
								}
								JOINT LeftArmEnd
								{
									OFFSET 0.000000 0.000000 0.000000
									CHANNELS 3 Zrotation Yrotation Xrotation
									End Site
									{
										OFFSET 0.000000 0.000000 0.000000
									}
								}
							}
						}
					}
				}
			}
		}
	}
	JOINT RightUpLeg
	{
		OFFSET -11.289943 0.000000 0.000000
		CHANNELS 3 Zrotation Yrotation Xrotation
		JOINT RightLeg
		{
			OFFSET 0.000000 -38.200325 0.000000
			CHANNELS 3 Zrotation Yrotation Xrotation
			JOINT RightFoot
			{
				OFFSET -0.000000 -39.900856 -0.000000
				CHANNELS 3 Zrotation Yrotation Xrotation
				JOINT RightToeBase
				{
					OFFSET 0.000000 0.000000 15.261641
					CHANNELS 3 Zrotation Yrotation Xrotation
					JOINT RightToeBaseEnd
					{
						OFFSET 0.000000 0.000000 7.370709
						CHANNELS 3 Zrotation Yrotation Xrotation
						End Site
						{
							OFFSET 0.000000 0.000000 0.000000
						}
					}
				}
				JOINT RightLegEnd
				{
					OFFSET 0.000000 0.000000 0.000000
					CHANNELS 3 Zrotation Yrotation Xrotation
					End Site
					{
						OFFSET 0.000000 0.000000 0.000000
					}
				}
			}
			JOINT RightUpLegEnd
			{
				OFFSET 0.000000 0.000000 0.000000
				CHANNELS 3 Zrotation Yrotation Xrotation
				End Site
				{
					OFFSET 0.000000 0.000000 0.000000
				}
			}
		}
	}
	JOINT LeftUpLeg
	{
		OFFSET 11.315661 -0.000000 0.000000
		CHANNELS 3 Zrotation Yrotation Xrotation
		JOINT LeftLeg
		{
			OFFSET -0.000000 -38.200325 -0.000000
			CHANNELS 3 Zrotation Yrotation Xrotation
			JOINT LeftFoot
			{
				OFFSET 0.000000 -39.900856 -0.000000
				CHANNELS 3 Zrotation Yrotation Xrotation
				JOINT LeftToeBase
				{
					OFFSET -0.000000 -0.000000 15.261641
					CHANNELS 3 Zrotation Yrotation Xrotation
					JOINT LeftToeBaseEnd
					{
						OFFSET 0.000000 -0.000000 7.539996
						CHANNELS 3 Zrotation Yrotation Xrotation
						End Site
						{
							OFFSET 0.000000 0.000000 0.000000
						}
					}
				}
				JOINT LeftLegEnd
				{
					OFFSET 0.000000 0.000000 0.000000
					CHANNELS 3 Zrotation Yrotation Xrotation
					End Site
					{
						OFFSET 0.000000 0.000000 0.000000
					}
				}
			}
			JOINT LeftUpLegEnd
			{
				OFFSET 0.000000 0.000000 0.000000
				CHANNELS 3 Zrotation Yrotation Xrotation
				End Site
				{
					OFFSET 0.000000 0.000000 0.000000
				}
			}
		}
	}
}
MOTION
Frames: 4
Frame Time: 0.016667
0.482771 88.507988 3.475678 -0.236094 -0.897725 -11.249863 1.221130 0.041405 7.850281 -1.203102 0.305319 2.140792 0.536021 -0.924948 6.502335 -1.505955 0.110903 4.477734 0.017905 0.293511 4.484955 0.228669 0.301029 -3.214986 -0.198702 -0.999183 -19.597359 0.000000 0.000000 0.000000 92.905716 -0.695891 10.513074 66.739967 -26.989323 3.487639 -0.145997 14.282069 29.719162 6.664500 9.163057 -10.238408 19.161070 30.279135 62.811897 -7.778406 -10.709566 -18.306664 -5.697330 -7.136225 -12.706601 0.000000 0.000000 0.000000 5.436358 -9.793362 1.546911 5.664404 0.493419 0.708652 5.321093 0.049647 0.741075 0.000000 0.000000 0.000000 5.638819 -4.349877 -0.551741 4.429314 0.517279 0.235919 5.014277 0.013121 0.228620 0.000000 0.000000 0.000000 6.914017 3.214496 -2.057492 5.331023 -1.004360 -0.447060 5.037030 -0.028600 -0.269021 0.000000 0.000000 0.000000 6.595038 11.436676 -4.695006 5.587855 -1.965482 -1.166201 5.202159 -0.016238 -0.987771 0.000000 0.000000 0.000000 0.000000 0.000000 0.000000 0.000000 0.000000 0.000000 -90.685112 0.762710 5.424698 -67.905342 15.434382 -4.123769 -1.034635 -11.163246 48.340881 -7.055161 -12.166940 -18.206118 -19.388988 -30.259748 62.508015 7.981454 11.016671 -18.981131 5.853139 7.478723 -13.308185 0.000000 0.000000 0.000000 -11.597185 -6.830896 3.315690 -7.590471 0.464488 -0.675985 -7.528594 0.003884 -0.659981 0.000000 0.000000 0.000000 -10.884982 -1.647443 0.759712 -7.237113 0.494251 -0.301868 -7.359848 0.005049 -0.248544 0.000000 0.000000 0.000000 -13.562408 6.510524 -1.364183 -8.759664 -0.992321 0.499792 -8.622202 -0.003733 0.384512 0.000000 0.000000 0.000000 -16.563648 15.085722 -4.588511 -9.964732 -1.875964 1.499278 -9.688656 0.118596 1.429767 0.000000 0.000000 0.000000 0.000000 0.000000 0.000000 0.000000 0.000000 0.000000 -0.739671 -9.816789 15.365210 -0.077032 -0.732066 5.450781 -2.953318 -7.395022 16.724777 -0.932906 0.936303 -18.097248 0.000000 0.000000 0.000000 0.000000 0.000000 0.000000 0.000000 0.000000 0.000000 -1.705047 -6.148267 10.513449 0.051569 0.338289 11.292148 3.897965 -0.868843 14.908200 0.222378 -0.403958 -20.297285 0.000000 0.000000 0.000000 0.000000 0.000000 0.000000 0.000000 0.000000 0.000000 
0.480962 88.516380 3.499488 -0.229254 -0.921555 -11.221620 1.227149 0.040408 7.874685 -1.199959 0.295196 2.107801 0.553842 -0.939917 6.542614 -1.495878 0.106823 4.456437 -0.040502 0.354346 4.375734 0.213999 0.354226 -3.245386 -0.214656 -0.986325 -19.548864 0.000000 0.000000 0.000000 92.895264 -0.693269 10.564772 66.695274 -27.320847 3.619674 -0.150876 13.936817 28.966404 6.833865 9.588668 -10.052682 19.246220 30.252893 62.736549 -7.862506 -10.866395 -18.545845 -5.765546 -7.243559 -12.874759 0.000000 0.000000 0.000000 6.072726 -9.900945 1.294170 6.041543 0.485793 0.732146 5.706665 0.042524 0.760921 0.000000 0.000000 0.000000 6.200398 -4.448738 -0.707512 4.798659 0.513968 0.246218 5.376616 0.010236 0.237198 0.000000 0.000000 0.000000 7.367757 3.129829 -2.075442 5.677088 -0.999475 -0.458063 5.384068 -0.025110 -0.277684 0.000000 0.000000 0.000000 6.949687 11.360137 -4.590687 5.868019 -1.952648 -1.202486 5.480304 -0.006591 -1.025697 0.000000 0.000000 0.000000 0.000000 0.000000 0.000000 0.000000 0.000000 0.000000 -90.651169 0.756720 5.500806 -68.002464 15.743774 -4.167670 -1.064081 -10.868197 47.394680 -6.933897 -12.580074 -18.388311 -19.434490 -30.243864 62.466133 8.027517 11.104754 -19.109415 5.891184 7.536465 -13.401546 0.000000 0.000000 0.000000 -11.869567 -6.767567 3.094267 -7.735976 0.457264 -0.703876 -7.668470 -0.002629 -0.685729 0.000000 0.000000 0.000000 -11.110779 -1.602278 0.617144 -7.355241 0.490712 -0.312649 -7.476279 0.001932 -0.258132 0.000000 0.000000 0.000000 -13.678461 6.527990 -1.396074 -8.818924 -0.987638 0.512973 -8.679842 -0.000540 0.394523 0.000000 0.000000 0.000000 -16.571274 15.073762 -4.506334 -9.954292 -1.865303 1.528771 -9.694180 0.126187 1.455981 0.000000 0.000000 0.000000 0.000000 0.000000 0.000000 0.000000 0.000000 0.000000 -0.756922 -9.846388 15.386992 -0.076550 -0.733839 5.389297 -2.935823 -7.383265 16.756704 -0.937226 0.939881 -18.109489 0.000000 0.000000 0.000000 0.000000 0.000000 0.000000 0.000000 0.000000 0.000000 -1.716993 -6.135123 10.494679 0.051979 0.343133 11.256783 3.882672 -0.898142 14.963804 0.218806 -0.407338 -20.328856 0.000000 0.000000 0.000000 0.000000 0.000000 0.000000 0.000000 0.000000 0.000000 
0.479888 88.524147 3.522346 -0.221147 -0.947944 -11.192155 1.230116 0.039502 7.896620 -1.196954 0.285019 2.076718 0.569327 -0.955549 6.575946 -1.483510 0.101557 4.432832 -0.096425 0.416837 4.270657 0.200408 0.410193 -3.274240 -0.230497 -0.973441 -19.500547 0.000000 0.000000 0.000000 92.884552 -0.690005 10.603725 66.663193 -27.590311 3.723207 -0.157327 13.627402 28.330824 6.969101 10.015632 -9.837230 19.328861 30.227512 62.663322 -7.944096 -11.018903 -18.778597 -5.831860 -7.347829 -13.038407 0.000000 0.000000 0.000000 6.698750 -10.005563 1.058528 6.412948 0.478221 0.755896 6.085986 0.035534 0.781068 0.000000 0.000000 0.000000 6.752759 -4.545559 -0.847557 5.161951 0.510650 0.256779 5.733802 0.007364 0.245869 0.000000 0.000000 0.000000 7.818316 3.046065 -2.082026 6.018037 -0.994585 -0.469417 5.727275 -0.021595 -0.286654 0.000000 0.000000 0.000000 7.305343 11.284766 -4.478763 6.147496 -1.939813 -1.238643 5.757742 0.003215 -1.063401 0.000000 0.000000 0.000000 0.000000 0.000000 0.000000 0.000000 0.000000 0.000000 -90.613365 0.749110 5.568768 -68.128654 16.009274 -4.247502 -1.091808 -10.599624 46.578712 -6.792330 -13.019217 -18.537949 -19.472818 -30.230204 62.430523 8.066654 11.179919 -19.218155 5.923826 7.585644 -13.480853 0.000000 0.000000 0.000000 -12.099805 -6.712383 2.899548 -7.862785 0.450561 -0.729737 -7.790174 -0.008635 -0.709764 0.000000 0.000000 0.000000 -11.301229 -1.563121 0.493237 -7.459232 0.487388 -0.322839 -7.578310 -0.000987 -0.267244 0.000000 0.000000 0.000000 -13.776792 6.542916 -1.421599 -8.872883 -0.983119 0.525473 -8.732634 0.002506 0.403955 0.000000 0.000000 0.000000 -16.580051 15.063119 -4.429801 -9.948254 -1.854996 1.557566 -9.703630 0.133504 1.481443 0.000000 0.000000 0.000000 0.000000 0.000000 0.000000 0.000000 0.000000 0.000000 -0.776043 -9.871330 15.406283 -0.076068 -0.735523 5.332698 -2.915920 -7.368970 16.786322 -0.941213 0.943260 -18.122896 0.000000 0.000000 0.000000 0.000000 0.000000 0.000000 0.000000 0.000000 0.000000 -1.730792 -6.118538 10.474478 0.052334 0.347505 11.223709 3.868425 -0.925259 15.017796 0.215529 -0.410396 -20.360243 0.000000 0.000000 0.000000 0.000000 0.000000 0.000000 0.000000 0.000000 0.000000 
0.479830 88.531151 3.544470 -0.211558 -0.976958 -11.161839 1.229919 0.038715 7.916297 -1.193972 0.274823 2.047512 0.582509 -0.971297 6.601733 -1.469373 0.095282 4.406370 -0.149738 0.480357 4.171840 0.187866 0.468160 -3.301039 -0.246094 -0.960639 -19.453018 0.000000 0.000000 0.000000 92.874100 -0.686040 10.630016 66.643929 -27.804642 3.796954 -0.165004 13.355933 27.812506 7.065430 10.435186 -9.602899 19.406689 30.203648 62.594200 -8.021074 -11.162868 -18.998438 -5.894530 -7.446166 -13.193096 0.000000 0.000000 0.000000 7.295527 -10.103896 0.846231 6.766247 0.470652 0.780022 6.446574 0.028614 0.801632 0.000000 0.000000 0.000000 7.279363 -4.637310 -0.967873 5.507306 0.507278 0.267650 6.073667 0.004486 0.254683 0.000000 0.000000 0.000000 8.252372 2.965402 -2.075663 6.342593 -0.989608 -0.481266 6.055146 -0.018026 -0.296028 0.000000 0.000000 0.000000 7.652349 11.211563 -4.359934 6.416986 -1.926816 -1.275037 6.024904 0.013285 -1.101039 0.000000 0.000000 0.000000 0.000000 0.000000 0.000000 0.000000 0.000000 0.000000 -90.573341 0.740108 5.628043 -68.280922 16.231153 -4.360319 -1.117135 -10.359635 45.890228 -6.629054 -13.479514 -18.654556 -19.504848 -30.218483 62.400379 8.099907 11.243814 -19.309896 5.951763 7.627266 -13.547969 0.000000 0.000000 0.000000 -12.292385 -6.664590 2.727910 -7.974188 0.444280 -0.753856 -7.896982 -0.014227 -0.732325 0.000000 0.000000 0.000000 -11.461683 -1.529012 0.386322 -7.552450 0.484249 -0.332568 -7.669564 -0.003726 -0.275975 0.000000 0.000000 0.000000 -13.864037 6.556355 -1.440451 -8.925804 -0.978708 0.537482 -8.784573 0.005436 0.413003 0.000000 0.000000 0.000000 -16.596542 15.054593 -4.357270 -9.950969 -1.844843 1.586243 -9.721099 0.140649 1.506586 0.000000 0.000000 0.000000 0.000000 0.000000 0.000000 0.000000 0.000000 0.000000 -0.797224 -9.891288 15.423295 -0.075607 -0.737111 5.281032 -2.894523 -7.351453 16.813503 -0.944885 0.946384 -18.137236 0.000000 0.000000 0.000000 0.000000 0.000000 0.000000 0.000000 0.000000 0.000000 -1.746320 -6.097296 10.453954 0.052618 0.351306 11.192563 3.855511 -0.948585 15.069249 0.212609 -0.413076 -20.390381 0.000000 0.000000 0.000000 0.000000 0.000000 0.000000 0.000000 0.000000 0.000000 
